<svg xmlns="http://www.w3.org/2000/svg" aria-hidden="true" data-glyph="tool-magnifier-checker-1" viewBox="0 0 24 24" height="20" width="20"><path xmlns="http://www.w3.org/2000/svg" d="M10.9999 18.3299C15.1499 18.3299 18.3299 15.1399 18.3299 10.9999C18.3299 6.84992 15.1399 3.66992 10.9999 3.66992C6.84992 3.66992 3.66992 6.85992 3.66992 10.9999C3.66992 15.1499 6.85992 18.3299 10.9999 18.3299ZM10.9999 21.3299C5.20992 21.3299 0.669922 16.7799 0.669922 10.9999C0.669922 5.20992 5.21992 0.669922 10.9999 0.669922C16.7899 0.669922 21.3299 5.21992 21.3299 10.9999C21.3299 16.7899 16.7799 21.3299 10.9999 21.3299ZM21.6699 23.5699C21.1399 23.5699 20.6399 23.3699 19.8699 22.4999L16.3699 18.8299L18.8399 16.3599L22.4399 19.7899C23.3699 20.5899 23.5699 21.1199 23.5699 21.6599C23.5699 22.6899 22.6999 23.5599 21.6699 23.5599V23.5699ZM5.99992 10.9999C5.99992 8.22992 8.26992 5.99992 10.9999 5.99992V10.9999H5.99992ZM10.9999 15.9999V10.9999H15.9999C15.9999 13.7299 13.7699 15.9999 10.9999 15.9999Z"></path></svg>