<?xml version="1.0" standalone="no"?>
<!DOCTYPE svg PUBLIC "-//W3C//DTD SVG 1.1//EN" "http://www.w3.org/Graphics/SVG/1.1/DTD/svg11.dtd" >
<svg xmlns="http://www.w3.org/2000/svg" xmlns:xlink="http://www.w3.org/1999/xlink" version="1.1" viewBox="-10 0 532 512">
  <g transform="matrix(1 0 0 -1 0 480)">
   <path fill="currentColor"
d="M199 351q8 1 24 1q138 -1 236 -88q-91 54 -239 54q-17 0 -28 -1q5 29 7 34zM464 261q-100 92 -243 92q-22 0 -23 -1t-8 -36q12 1 30 1q152 0 244 -57v1zM140 246q0 49 10.5 88.5t23.5 41.5q21 3 52 3q24 0 48 -2.5t56 -11.5t61.5 -22.5t61.5 -38.5t58 -58
q-32 -41 -72 -69t-80.5 -41t-72 -18t-61.5 -5l-51 3q-13 2 -23.5 41.5t-10.5 88.5zM45 347l85 18l-21 -37l-74 4zM133 366q-8 -1 -40 -7.5t-49 -10.5q-6 -9 -10 -17l75 -4zM106 246q0 -6 2 -19l-107 13v12l107 13q-2 -13 -2 -19zM0 253v-14l109 -13q-2 14 -2 20.5t2 19.5z
M109 164l21 -37l-85 18l-10 15zM133 126l-24 39l-75 -4l10 -17zM226 380l-52 -3q-14 -2 -24.5 -42t-10.5 -89t10.5 -89t24.5 -42q21 -3 51 -3q19 0 39 2t45.5 6.5t51 14.5t51.5 24.5t52 36.5t48 50q-32 41 -72 69.5t-80 41.5t-71.5 18t-62.5 5zM132 127l-88 17l-9 17l74 4z
M108 266q-2 -13 -2 -20l2 -20l-108 13v14zM132 365l-23 -38l-74 4l9 17zM226 380q31 0 62.5 -5.5t71.5 -18.5t80 -41t72 -69q-37 -47 -85.5 -77.5t-91 -41t-80 -14t-59.5 -0.5l-22 3q-6 1 -12.5 12t-11.5 29t-8 41.5t-3 47.5q0 49 11 88.5t24 41.5zM223 352l-25 -1l-7 -34
q7 0 18.5 0.5t45.5 -1t66 -6.5t72 -17.5t71 -31.5q-100 91 -241 91z" />
  </g>

</svg>
