<?xml version="1.0" standalone="no"?>
<!DOCTYPE svg PUBLIC "-//W3C//DTD SVG 1.1//EN" "http://www.w3.org/Graphics/SVG/1.1/DTD/svg11.dtd" >
<svg xmlns="http://www.w3.org/2000/svg" xmlns:xlink="http://www.w3.org/1999/xlink" version="1.1" viewBox="-10 0 522 512">
  <g transform="matrix(1 0 0 -1 0 480)">
   <path fill="currentColor"
d="M353 59l-4 1h-11h-13q-26 2 -67 1q-86 -3 -97 2l-3 1v6q0 9 7 15q19 16 112 18h10l-8 2q-44 9 -61 39q-15 27 5 49q12 12 39 12q14 0 18 -1l7 -1q0 2 -1 4q-11 19 -42 21q-35 3 -50 -27q-5 -13 -5 -29q0 -14 1 -20l2 -9l-11 -18q-37 -58 -49 -63q-3 -1 -22 -2
q-24 0 -31 4q-2 1 -2 7q0 11 5 16q6 7 26 10q12 2 14.5 5t3.5 16q3 29 6 40q6 25 -3 48q-7 18 -7 27q-2 11 2 21l1 3l-4 1q-23 3 -28 5q-27 6 -30 22q-8 32 25 75q20 26 46 35q21 5 44 0q1 -1 1.5 0t2.5 4q7 16 40 39q38 25 72 25q15 0 18 -9q2 -8 -5.5 -14t-30.5 -16
q-12 -5 -12 -6q2 1 5 2q42 14 65 -2q11 -8 6 -17q-5 -5 -29 -11q-34 -11 -52 -21q-12 -6 -26 -14l-11 -6l1 -8q4 -15 17 -20q9 -3 45 -6q44 -3 60 -10q9 -5 17 -12q43 -39 55 -87q3 -22 2 -31v-6h6q17 -3 23 -18q3 -6 3 -13q0 -5 -2 -13q-7 -14 -21 -17q-17 -5 -38 10l-3 2
l-1 -2q-1 -2 -1.5 -10t0.5 -13l3 -12q3 -10 1 -16q-1 -2 -10 -7q-3 -1 -13 -1.5t-13 0.5zM135 309q10 5 9.5 16.5t-10.5 16.5q-7 4 -14 0q-8 -4 -9 -11q-1 -6 0 -11q2 -8 9.5 -11.5t14.5 0.5z" />
  </g>

</svg>
